%TF.GenerationSoftware,KiCad,Pcbnew,8.0.1*%
%TF.CreationDate,2024-05-05T17:00:50-04:00*%
%TF.ProjectId,picoboard,7069636f-626f-4617-9264-2e6b69636164,rev?*%
%TF.SameCoordinates,Original*%
%TF.FileFunction,Copper,L2,Bot*%
%TF.FilePolarity,Positive*%
%FSLAX46Y46*%
G04 Gerber Fmt 4.6, Leading zero omitted, Abs format (unit mm)*
G04 Created by KiCad (PCBNEW 8.0.1) date 2024-05-05 17:00:50*
%MOMM*%
%LPD*%
G01*
G04 APERTURE LIST*
%TA.AperFunction,ComponentPad*%
%ADD10O,1.700000X1.700000*%
%TD*%
%TA.AperFunction,ComponentPad*%
%ADD11R,1.700000X1.700000*%
%TD*%
%TA.AperFunction,Conductor*%
%ADD12C,0.635000*%
%TD*%
%TA.AperFunction,Conductor*%
%ADD13C,0.381000*%
%TD*%
G04 APERTURE END LIST*
D10*
%TO.P,J4,5,Pin_5*%
%TO.N,GND*%
X99900000Y-105340000D03*
%TO.P,J4,4,Pin_4*%
%TO.N,+5V*%
X99900000Y-107880000D03*
%TO.P,J4,3,Pin_3*%
%TO.N,unconnected-(J4-Pin_3-Pad3)*%
X99900000Y-110420000D03*
%TO.P,J4,2,Pin_2*%
%TO.N,GND*%
X99900000Y-112960000D03*
D11*
%TO.P,J4,1,Pin_1*%
%TO.N,/A+*%
X99900000Y-115500000D03*
%TD*%
%TO.P,J3,1,Pin_1*%
%TO.N,/A+*%
X117900000Y-105340000D03*
D10*
%TO.P,J3,2,Pin_2*%
%TO.N,GND*%
X117900000Y-107880000D03*
%TO.P,J3,3,Pin_3*%
%TO.N,unconnected-(J3-Pin_3-Pad3)*%
X117900000Y-110420000D03*
%TO.P,J3,4,Pin_4*%
%TO.N,+5V*%
X117900000Y-112960000D03*
%TO.P,J3,5,Pin_5*%
%TO.N,GND*%
X117900000Y-115500000D03*
%TD*%
D11*
%TO.P,J2,1,Pin_1*%
%TO.N,+5V*%
X117700000Y-50000000D03*
D10*
%TO.P,J2,2,Pin_2*%
%TO.N,unconnected-(J2-Pin_2-Pad2)*%
X117700000Y-52540000D03*
%TO.P,J2,3,Pin_3*%
%TO.N,GND*%
X117700000Y-55080000D03*
%TO.P,J2,4,Pin_4*%
%TO.N,unconnected-(J2-Pin_4-Pad4)*%
X117700000Y-57620000D03*
%TO.P,J2,5,Pin_5*%
%TO.N,unconnected-(J2-Pin_5-Pad5)*%
X117700000Y-60160000D03*
%TO.P,J2,6,Pin_6*%
%TO.N,unconnected-(J2-Pin_6-Pad6)*%
X117700000Y-62700000D03*
%TO.P,J2,7,Pin_7*%
%TO.N,unconnected-(J2-Pin_7-Pad7)*%
X117700000Y-65240000D03*
%TO.P,J2,8,Pin_8*%
%TO.N,unconnected-(J2-Pin_8-Pad8)*%
X117700000Y-67780000D03*
%TO.P,J2,9,Pin_9*%
%TO.N,unconnected-(J2-Pin_9-Pad9)*%
X117700000Y-70320000D03*
%TO.P,J2,10,Pin_10*%
%TO.N,unconnected-(J2-Pin_10-Pad10)*%
X117700000Y-72860000D03*
%TO.P,J2,11,Pin_11*%
%TO.N,unconnected-(J2-Pin_11-Pad11)*%
X117700000Y-75400000D03*
%TO.P,J2,12,Pin_12*%
%TO.N,unconnected-(J2-Pin_12-Pad12)*%
X117700000Y-77940000D03*
%TO.P,J2,13,Pin_13*%
%TO.N,unconnected-(J2-Pin_13-Pad13)*%
X117700000Y-80480000D03*
%TO.P,J2,14,Pin_14*%
%TO.N,unconnected-(J2-Pin_14-Pad14)*%
X117700000Y-83020000D03*
%TO.P,J2,15,Pin_15*%
%TO.N,unconnected-(J2-Pin_15-Pad15)*%
X117700000Y-85560000D03*
%TO.P,J2,16,Pin_16*%
%TO.N,unconnected-(J2-Pin_16-Pad16)*%
X117700000Y-88100000D03*
%TO.P,J2,17,Pin_17*%
%TO.N,unconnected-(J2-Pin_17-Pad17)*%
X117700000Y-90640000D03*
%TO.P,J2,18,Pin_18*%
%TO.N,unconnected-(J2-Pin_18-Pad18)*%
X117700000Y-93180000D03*
%TO.P,J2,19,Pin_19*%
%TO.N,unconnected-(J2-Pin_19-Pad19)*%
X117700000Y-95720000D03*
%TO.P,J2,20,Pin_20*%
%TO.N,/A+*%
X117700000Y-98260000D03*
%TD*%
D11*
%TO.P,J1,1,Pin_1*%
%TO.N,unconnected-(J1-Pin_1-Pad1)*%
X99900000Y-50000000D03*
D10*
%TO.P,J1,2,Pin_2*%
%TO.N,unconnected-(J1-Pin_2-Pad2)*%
X99900000Y-52540000D03*
%TO.P,J1,3,Pin_3*%
%TO.N,unconnected-(J1-Pin_3-Pad3)*%
X99900000Y-55080000D03*
%TO.P,J1,4,Pin_4*%
%TO.N,unconnected-(J1-Pin_4-Pad4)*%
X99900000Y-57620000D03*
%TO.P,J1,5,Pin_5*%
%TO.N,unconnected-(J1-Pin_5-Pad5)*%
X99900000Y-60160000D03*
%TO.P,J1,6,Pin_6*%
%TO.N,unconnected-(J1-Pin_6-Pad6)*%
X99900000Y-62700000D03*
%TO.P,J1,7,Pin_7*%
%TO.N,unconnected-(J1-Pin_7-Pad7)*%
X99900000Y-65240000D03*
%TO.P,J1,8,Pin_8*%
%TO.N,unconnected-(J1-Pin_8-Pad8)*%
X99900000Y-67780000D03*
%TO.P,J1,9,Pin_9*%
%TO.N,unconnected-(J1-Pin_9-Pad9)*%
X99900000Y-70320000D03*
%TO.P,J1,10,Pin_10*%
%TO.N,unconnected-(J1-Pin_10-Pad10)*%
X99900000Y-72860000D03*
%TO.P,J1,11,Pin_11*%
%TO.N,unconnected-(J1-Pin_11-Pad11)*%
X99900000Y-75400000D03*
%TO.P,J1,12,Pin_12*%
%TO.N,unconnected-(J1-Pin_12-Pad12)*%
X99900000Y-77940000D03*
%TO.P,J1,13,Pin_13*%
%TO.N,unconnected-(J1-Pin_13-Pad13)*%
X99900000Y-80480000D03*
%TO.P,J1,14,Pin_14*%
%TO.N,unconnected-(J1-Pin_14-Pad14)*%
X99900000Y-83020000D03*
%TO.P,J1,15,Pin_15*%
%TO.N,unconnected-(J1-Pin_15-Pad15)*%
X99900000Y-85560000D03*
%TO.P,J1,16,Pin_16*%
%TO.N,unconnected-(J1-Pin_16-Pad16)*%
X99900000Y-88100000D03*
%TO.P,J1,17,Pin_17*%
%TO.N,unconnected-(J1-Pin_17-Pad17)*%
X99900000Y-90640000D03*
%TO.P,J1,18,Pin_18*%
%TO.N,unconnected-(J1-Pin_18-Pad18)*%
X99900000Y-93180000D03*
%TO.P,J1,19,Pin_19*%
%TO.N,unconnected-(J1-Pin_19-Pad19)*%
X99900000Y-95720000D03*
%TO.P,J1,20,Pin_20*%
%TO.N,unconnected-(J1-Pin_20-Pad20)*%
X99900000Y-98260000D03*
%TD*%
D12*
%TO.N,+5V*%
X116867500Y-116867500D02*
X107880000Y-107880000D01*
X118844500Y-116867500D02*
X116867500Y-116867500D01*
X107880000Y-107880000D02*
X99900000Y-107880000D01*
X119267500Y-116444500D02*
X118844500Y-116867500D01*
X119267500Y-114327500D02*
X119267500Y-116444500D01*
X117900000Y-112960000D02*
X119267500Y-114327500D01*
D13*
%TO.N,/A+*%
X116659500Y-108531500D02*
X116659500Y-106580500D01*
X119975500Y-110577500D02*
X118577500Y-109179500D01*
X117307500Y-109179500D02*
X116659500Y-108531500D01*
X119975500Y-116752500D02*
X119975500Y-110577500D01*
X101975500Y-117575500D02*
X119152500Y-117575500D01*
X118577500Y-109179500D02*
X117307500Y-109179500D01*
X99900000Y-115500000D02*
X101975500Y-117575500D01*
X116659500Y-106580500D02*
X117900000Y-105340000D01*
X119152500Y-117575500D02*
X119975500Y-116752500D01*
D12*
%TO.N,+5V*%
X115062000Y-110122000D02*
X117900000Y-112960000D01*
X115062000Y-52638000D02*
X115062000Y-110122000D01*
X117700000Y-50000000D02*
X115062000Y-52638000D01*
%TO.N,GND*%
X99900000Y-105340000D02*
X107740000Y-105340000D01*
X107740000Y-105340000D02*
X117900000Y-115500000D01*
%TO.N,/A+*%
X117700000Y-105140000D02*
X117900000Y-105340000D01*
X117700000Y-98260000D02*
X117700000Y-105140000D01*
%TD*%
%TA.AperFunction,Conductor*%
%TO.N,GND*%
G36*
X117605243Y-46728669D02*
G01*
X117941450Y-46746290D01*
X117954358Y-46747647D01*
X118283677Y-46799806D01*
X118296342Y-46802497D01*
X118618422Y-46888798D01*
X118630749Y-46892803D01*
X118942038Y-47012296D01*
X118953873Y-47017565D01*
X119250976Y-47168947D01*
X119262191Y-47175423D01*
X119541832Y-47357023D01*
X119552313Y-47364638D01*
X119811441Y-47574475D01*
X119821086Y-47583160D01*
X120056839Y-47818913D01*
X120065524Y-47828558D01*
X120275359Y-48087683D01*
X120282978Y-48098171D01*
X120464573Y-48377802D01*
X120471059Y-48389035D01*
X120622429Y-48686115D01*
X120627708Y-48697972D01*
X120747193Y-49009241D01*
X120751204Y-49021586D01*
X120837498Y-49343642D01*
X120840196Y-49356337D01*
X120892352Y-49685641D01*
X120893709Y-49698549D01*
X120911330Y-50034766D01*
X120911500Y-50041256D01*
X120911500Y-50109430D01*
X120911788Y-50113717D01*
X121165482Y-115566580D01*
X121165313Y-115573551D01*
X121147709Y-115909450D01*
X121146352Y-115922358D01*
X121094196Y-116251662D01*
X121091498Y-116264357D01*
X121005204Y-116586413D01*
X121001193Y-116598758D01*
X120906264Y-116846057D01*
X120863862Y-116901589D01*
X120798168Y-116925382D01*
X120730040Y-116909881D01*
X120681107Y-116860007D01*
X120666500Y-116801619D01*
X120666500Y-110509439D01*
X120639946Y-110375946D01*
X120639943Y-110375938D01*
X120587858Y-110250193D01*
X120587857Y-110250191D01*
X120556035Y-110202566D01*
X120512233Y-110137011D01*
X120512230Y-110137008D01*
X119089187Y-108713964D01*
X119055702Y-108652641D01*
X119060686Y-108582949D01*
X119071406Y-108562562D01*
X119070894Y-108562266D01*
X119073600Y-108557578D01*
X119173429Y-108343492D01*
X119173432Y-108343486D01*
X119230636Y-108130000D01*
X118333012Y-108130000D01*
X118365925Y-108072993D01*
X118400000Y-107945826D01*
X118400000Y-107814174D01*
X118365925Y-107687007D01*
X118333012Y-107630000D01*
X119230636Y-107630000D01*
X119230635Y-107629999D01*
X119173432Y-107416513D01*
X119173429Y-107416507D01*
X119073600Y-107202422D01*
X119073599Y-107202420D01*
X118938113Y-107008926D01*
X118938108Y-107008920D01*
X118816053Y-106886865D01*
X118782568Y-106825542D01*
X118787552Y-106755850D01*
X118829424Y-106699917D01*
X118860400Y-106683002D01*
X118992331Y-106633796D01*
X119107546Y-106547546D01*
X119193796Y-106432331D01*
X119244091Y-106297483D01*
X119250500Y-106237873D01*
X119250499Y-104442128D01*
X119244091Y-104382517D01*
X119214019Y-104301891D01*
X119193797Y-104247671D01*
X119193793Y-104247664D01*
X119107547Y-104132455D01*
X119107544Y-104132452D01*
X118992335Y-104046206D01*
X118992328Y-104046202D01*
X118857482Y-103995908D01*
X118857483Y-103995908D01*
X118797883Y-103989501D01*
X118797881Y-103989500D01*
X118797873Y-103989500D01*
X118797865Y-103989500D01*
X118642000Y-103989500D01*
X118574961Y-103969815D01*
X118529206Y-103917011D01*
X118518000Y-103865500D01*
X118518000Y-99400437D01*
X118537685Y-99333398D01*
X118567550Y-99302324D01*
X118567256Y-99301974D01*
X118570516Y-99299238D01*
X118570881Y-99298859D01*
X118571401Y-99298495D01*
X118738495Y-99131401D01*
X118874035Y-98937830D01*
X118973903Y-98723663D01*
X119035063Y-98495408D01*
X119055659Y-98260000D01*
X119035063Y-98024592D01*
X118973903Y-97796337D01*
X118874035Y-97582171D01*
X118738495Y-97388599D01*
X118738494Y-97388597D01*
X118571402Y-97221506D01*
X118571396Y-97221501D01*
X118385842Y-97091575D01*
X118342217Y-97036998D01*
X118335023Y-96967500D01*
X118366546Y-96905145D01*
X118385842Y-96888425D01*
X118408026Y-96872891D01*
X118571401Y-96758495D01*
X118738495Y-96591401D01*
X118874035Y-96397830D01*
X118973903Y-96183663D01*
X119035063Y-95955408D01*
X119055659Y-95720000D01*
X119035063Y-95484592D01*
X118973903Y-95256337D01*
X118874035Y-95042171D01*
X118738495Y-94848599D01*
X118738494Y-94848597D01*
X118571402Y-94681506D01*
X118571396Y-94681501D01*
X118385842Y-94551575D01*
X118342217Y-94496998D01*
X118335023Y-94427500D01*
X118366546Y-94365145D01*
X118385842Y-94348425D01*
X118408026Y-94332891D01*
X118571401Y-94218495D01*
X118738495Y-94051401D01*
X118874035Y-93857830D01*
X118973903Y-93643663D01*
X119035063Y-93415408D01*
X119055659Y-93180000D01*
X119035063Y-92944592D01*
X118973903Y-92716337D01*
X118874035Y-92502171D01*
X118738495Y-92308599D01*
X118738494Y-92308597D01*
X118571402Y-92141506D01*
X118571396Y-92141501D01*
X118385842Y-92011575D01*
X118342217Y-91956998D01*
X118335023Y-91887500D01*
X118366546Y-91825145D01*
X118385842Y-91808425D01*
X118408026Y-91792891D01*
X118571401Y-91678495D01*
X118738495Y-91511401D01*
X118874035Y-91317830D01*
X118973903Y-91103663D01*
X119035063Y-90875408D01*
X119055659Y-90640000D01*
X119035063Y-90404592D01*
X118973903Y-90176337D01*
X118874035Y-89962171D01*
X118738495Y-89768599D01*
X118738494Y-89768597D01*
X118571402Y-89601506D01*
X118571396Y-89601501D01*
X118385842Y-89471575D01*
X118342217Y-89416998D01*
X118335023Y-89347500D01*
X118366546Y-89285145D01*
X118385842Y-89268425D01*
X118408026Y-89252891D01*
X118571401Y-89138495D01*
X118738495Y-88971401D01*
X118874035Y-88777830D01*
X118973903Y-88563663D01*
X119035063Y-88335408D01*
X119055659Y-88100000D01*
X119035063Y-87864592D01*
X118973903Y-87636337D01*
X118874035Y-87422171D01*
X118738495Y-87228599D01*
X118738494Y-87228597D01*
X118571402Y-87061506D01*
X118571396Y-87061501D01*
X118385842Y-86931575D01*
X118342217Y-86876998D01*
X118335023Y-86807500D01*
X118366546Y-86745145D01*
X118385842Y-86728425D01*
X118408026Y-86712891D01*
X118571401Y-86598495D01*
X118738495Y-86431401D01*
X118874035Y-86237830D01*
X118973903Y-86023663D01*
X119035063Y-85795408D01*
X119055659Y-85560000D01*
X119035063Y-85324592D01*
X118973903Y-85096337D01*
X118874035Y-84882171D01*
X118738495Y-84688599D01*
X118738494Y-84688597D01*
X118571402Y-84521506D01*
X118571396Y-84521501D01*
X118385842Y-84391575D01*
X118342217Y-84336998D01*
X118335023Y-84267500D01*
X118366546Y-84205145D01*
X118385842Y-84188425D01*
X118408026Y-84172891D01*
X118571401Y-84058495D01*
X118738495Y-83891401D01*
X118874035Y-83697830D01*
X118973903Y-83483663D01*
X119035063Y-83255408D01*
X119055659Y-83020000D01*
X119035063Y-82784592D01*
X118973903Y-82556337D01*
X118874035Y-82342171D01*
X118738495Y-82148599D01*
X118738494Y-82148597D01*
X118571402Y-81981506D01*
X118571396Y-81981501D01*
X118385842Y-81851575D01*
X118342217Y-81796998D01*
X118335023Y-81727500D01*
X118366546Y-81665145D01*
X118385842Y-81648425D01*
X118408026Y-81632891D01*
X118571401Y-81518495D01*
X118738495Y-81351401D01*
X118874035Y-81157830D01*
X118973903Y-80943663D01*
X119035063Y-80715408D01*
X119055659Y-80480000D01*
X119035063Y-80244592D01*
X118973903Y-80016337D01*
X118874035Y-79802171D01*
X118738495Y-79608599D01*
X118738494Y-79608597D01*
X118571402Y-79441506D01*
X118571396Y-79441501D01*
X118385842Y-79311575D01*
X118342217Y-79256998D01*
X118335023Y-79187500D01*
X118366546Y-79125145D01*
X118385842Y-79108425D01*
X118408026Y-79092891D01*
X118571401Y-78978495D01*
X118738495Y-78811401D01*
X118874035Y-78617830D01*
X118973903Y-78403663D01*
X119035063Y-78175408D01*
X119055659Y-77940000D01*
X119035063Y-77704592D01*
X118973903Y-77476337D01*
X118874035Y-77262171D01*
X118738495Y-77068599D01*
X118738494Y-77068597D01*
X118571402Y-76901506D01*
X118571396Y-76901501D01*
X118385842Y-76771575D01*
X118342217Y-76716998D01*
X118335023Y-76647500D01*
X118366546Y-76585145D01*
X118385842Y-76568425D01*
X118408026Y-76552891D01*
X118571401Y-76438495D01*
X118738495Y-76271401D01*
X118874035Y-76077830D01*
X118973903Y-75863663D01*
X119035063Y-75635408D01*
X119055659Y-75400000D01*
X119035063Y-75164592D01*
X118973903Y-74936337D01*
X118874035Y-74722171D01*
X118738495Y-74528599D01*
X118738494Y-74528597D01*
X118571402Y-74361506D01*
X118571396Y-74361501D01*
X118385842Y-74231575D01*
X118342217Y-74176998D01*
X118335023Y-74107500D01*
X118366546Y-74045145D01*
X118385842Y-74028425D01*
X118408026Y-74012891D01*
X118571401Y-73898495D01*
X118738495Y-73731401D01*
X118874035Y-73537830D01*
X118973903Y-73323663D01*
X119035063Y-73095408D01*
X119055659Y-72860000D01*
X119035063Y-72624592D01*
X118973903Y-72396337D01*
X118874035Y-72182171D01*
X118738495Y-71988599D01*
X118738494Y-71988597D01*
X118571402Y-71821506D01*
X118571396Y-71821501D01*
X118385842Y-71691575D01*
X118342217Y-71636998D01*
X118335023Y-71567500D01*
X118366546Y-71505145D01*
X118385842Y-71488425D01*
X118408026Y-71472891D01*
X118571401Y-71358495D01*
X118738495Y-71191401D01*
X118874035Y-70997830D01*
X118973903Y-70783663D01*
X119035063Y-70555408D01*
X119055659Y-70320000D01*
X119035063Y-70084592D01*
X118973903Y-69856337D01*
X118874035Y-69642171D01*
X118738495Y-69448599D01*
X118738494Y-69448597D01*
X118571402Y-69281506D01*
X118571396Y-69281501D01*
X118385842Y-69151575D01*
X118342217Y-69096998D01*
X118335023Y-69027500D01*
X118366546Y-68965145D01*
X118385842Y-68948425D01*
X118408026Y-68932891D01*
X118571401Y-68818495D01*
X118738495Y-68651401D01*
X118874035Y-68457830D01*
X118973903Y-68243663D01*
X119035063Y-68015408D01*
X119055659Y-67780000D01*
X119035063Y-67544592D01*
X118973903Y-67316337D01*
X118874035Y-67102171D01*
X118738495Y-66908599D01*
X118738494Y-66908597D01*
X118571402Y-66741506D01*
X118571396Y-66741501D01*
X118385842Y-66611575D01*
X118342217Y-66556998D01*
X118335023Y-66487500D01*
X118366546Y-66425145D01*
X118385842Y-66408425D01*
X118408026Y-66392891D01*
X118571401Y-66278495D01*
X118738495Y-66111401D01*
X118874035Y-65917830D01*
X118973903Y-65703663D01*
X119035063Y-65475408D01*
X119055659Y-65240000D01*
X119035063Y-65004592D01*
X118973903Y-64776337D01*
X118874035Y-64562171D01*
X118738495Y-64368599D01*
X118738494Y-64368597D01*
X118571402Y-64201506D01*
X118571396Y-64201501D01*
X118385842Y-64071575D01*
X118342217Y-64016998D01*
X118335023Y-63947500D01*
X118366546Y-63885145D01*
X118385842Y-63868425D01*
X118408026Y-63852891D01*
X118571401Y-63738495D01*
X118738495Y-63571401D01*
X118874035Y-63377830D01*
X118973903Y-63163663D01*
X119035063Y-62935408D01*
X119055659Y-62700000D01*
X119035063Y-62464592D01*
X118973903Y-62236337D01*
X118874035Y-62022171D01*
X118738495Y-61828599D01*
X118738494Y-61828597D01*
X118571402Y-61661506D01*
X118571396Y-61661501D01*
X118385842Y-61531575D01*
X118342217Y-61476998D01*
X118335023Y-61407500D01*
X118366546Y-61345145D01*
X118385842Y-61328425D01*
X118408026Y-61312891D01*
X118571401Y-61198495D01*
X118738495Y-61031401D01*
X118874035Y-60837830D01*
X118973903Y-60623663D01*
X119035063Y-60395408D01*
X119055659Y-60160000D01*
X119035063Y-59924592D01*
X118973903Y-59696337D01*
X118874035Y-59482171D01*
X118738495Y-59288599D01*
X118738494Y-59288597D01*
X118571402Y-59121506D01*
X118571396Y-59121501D01*
X118385842Y-58991575D01*
X118342217Y-58936998D01*
X118335023Y-58867500D01*
X118366546Y-58805145D01*
X118385842Y-58788425D01*
X118408026Y-58772891D01*
X118571401Y-58658495D01*
X118738495Y-58491401D01*
X118874035Y-58297830D01*
X118973903Y-58083663D01*
X119035063Y-57855408D01*
X119055659Y-57620000D01*
X119035063Y-57384592D01*
X118973903Y-57156337D01*
X118874035Y-56942171D01*
X118738495Y-56748599D01*
X118738494Y-56748597D01*
X118571402Y-56581506D01*
X118571401Y-56581505D01*
X118385405Y-56451269D01*
X118341781Y-56396692D01*
X118334588Y-56327193D01*
X118366110Y-56264839D01*
X118385405Y-56248119D01*
X118571082Y-56118105D01*
X118738105Y-55951082D01*
X118873600Y-55757578D01*
X118973429Y-55543492D01*
X118973432Y-55543486D01*
X119030636Y-55330000D01*
X118133012Y-55330000D01*
X118165925Y-55272993D01*
X118200000Y-55145826D01*
X118200000Y-55014174D01*
X118165925Y-54887007D01*
X118133012Y-54830000D01*
X119030636Y-54830000D01*
X119030635Y-54829999D01*
X118973432Y-54616513D01*
X118973429Y-54616507D01*
X118873600Y-54402422D01*
X118873599Y-54402420D01*
X118738113Y-54208926D01*
X118738108Y-54208920D01*
X118571078Y-54041890D01*
X118385405Y-53911879D01*
X118341780Y-53857302D01*
X118334588Y-53787804D01*
X118366110Y-53725449D01*
X118385406Y-53708730D01*
X118385842Y-53708425D01*
X118571401Y-53578495D01*
X118738495Y-53411401D01*
X118874035Y-53217830D01*
X118973903Y-53003663D01*
X119035063Y-52775408D01*
X119055659Y-52540000D01*
X119035063Y-52304592D01*
X118973903Y-52076337D01*
X118874035Y-51862171D01*
X118738495Y-51668599D01*
X118616567Y-51546671D01*
X118583084Y-51485351D01*
X118588068Y-51415659D01*
X118629939Y-51359725D01*
X118660915Y-51342810D01*
X118792331Y-51293796D01*
X118907546Y-51207546D01*
X118993796Y-51092331D01*
X119044091Y-50957483D01*
X119050500Y-50897873D01*
X119050499Y-49102128D01*
X119044091Y-49042517D01*
X119036284Y-49021586D01*
X118993797Y-48907671D01*
X118993793Y-48907664D01*
X118907547Y-48792455D01*
X118907544Y-48792452D01*
X118792335Y-48706206D01*
X118792328Y-48706202D01*
X118657482Y-48655908D01*
X118657483Y-48655908D01*
X118597883Y-48649501D01*
X118597881Y-48649500D01*
X118597873Y-48649500D01*
X118597864Y-48649500D01*
X116802129Y-48649500D01*
X116802123Y-48649501D01*
X116742516Y-48655908D01*
X116607671Y-48706202D01*
X116607664Y-48706206D01*
X116492455Y-48792452D01*
X116492452Y-48792455D01*
X116406206Y-48907664D01*
X116406202Y-48907671D01*
X116355908Y-49042517D01*
X116349501Y-49102116D01*
X116349501Y-49102123D01*
X116349500Y-49102135D01*
X116349500Y-50142310D01*
X116329815Y-50209349D01*
X116313181Y-50229991D01*
X114426620Y-52116551D01*
X114426617Y-52116555D01*
X114337098Y-52250528D01*
X114337097Y-52250531D01*
X114314705Y-52304591D01*
X114314705Y-52304592D01*
X114275435Y-52399397D01*
X114275433Y-52399405D01*
X114244000Y-52557429D01*
X114244000Y-110202570D01*
X114275432Y-110360594D01*
X114275435Y-110360603D01*
X114281790Y-110375944D01*
X114281791Y-110375946D01*
X114337097Y-110509468D01*
X114337098Y-110509471D01*
X114426617Y-110643444D01*
X114426620Y-110643448D01*
X116519450Y-112736277D01*
X116552935Y-112797600D01*
X116555297Y-112834765D01*
X116544341Y-112959997D01*
X116544341Y-112960000D01*
X116564936Y-113195403D01*
X116564938Y-113195413D01*
X116626094Y-113423655D01*
X116626096Y-113423659D01*
X116626097Y-113423663D01*
X116725847Y-113637578D01*
X116725965Y-113637830D01*
X116725967Y-113637834D01*
X116834281Y-113792521D01*
X116861505Y-113831401D01*
X117028599Y-113998495D01*
X117150925Y-114084149D01*
X117214594Y-114128730D01*
X117258219Y-114183307D01*
X117265413Y-114252805D01*
X117233890Y-114315160D01*
X117214595Y-114331880D01*
X117028922Y-114461890D01*
X117028920Y-114461891D01*
X116861891Y-114628920D01*
X116861886Y-114628926D01*
X116726400Y-114822420D01*
X116726399Y-114822422D01*
X116626570Y-115036507D01*
X116626567Y-115036514D01*
X116590603Y-115170733D01*
X116554237Y-115230393D01*
X116491390Y-115260922D01*
X116422015Y-115252627D01*
X116383147Y-115226320D01*
X108401448Y-107244620D01*
X108401444Y-107244617D01*
X108267474Y-107155100D01*
X108267461Y-107155093D01*
X108118606Y-107093436D01*
X108118594Y-107093433D01*
X107960570Y-107062000D01*
X107960566Y-107062000D01*
X101040437Y-107062000D01*
X100973398Y-107042315D01*
X100942328Y-107012454D01*
X100941977Y-107012749D01*
X100939235Y-107009481D01*
X100938862Y-107009123D01*
X100938498Y-107008603D01*
X100938497Y-107008601D01*
X100938495Y-107008599D01*
X100771401Y-106841505D01*
X100585405Y-106711269D01*
X100541781Y-106656692D01*
X100534588Y-106587193D01*
X100566110Y-106524839D01*
X100585405Y-106508119D01*
X100771082Y-106378105D01*
X100938105Y-106211082D01*
X101073600Y-106017578D01*
X101173429Y-105803492D01*
X101173432Y-105803486D01*
X101230636Y-105590000D01*
X100333012Y-105590000D01*
X100365925Y-105532993D01*
X100400000Y-105405826D01*
X100400000Y-105274174D01*
X100365925Y-105147007D01*
X100333012Y-105090000D01*
X101230636Y-105090000D01*
X101230635Y-105089999D01*
X101173432Y-104876513D01*
X101173429Y-104876507D01*
X101073600Y-104662422D01*
X101073599Y-104662420D01*
X100938113Y-104468926D01*
X100938108Y-104468920D01*
X100771082Y-104301894D01*
X100577578Y-104166399D01*
X100363492Y-104066570D01*
X100363486Y-104066567D01*
X100150000Y-104009364D01*
X100150000Y-104906988D01*
X100092993Y-104874075D01*
X99965826Y-104840000D01*
X99834174Y-104840000D01*
X99707007Y-104874075D01*
X99650000Y-104906988D01*
X99650000Y-104009364D01*
X99649999Y-104009364D01*
X99436513Y-104066567D01*
X99436507Y-104066570D01*
X99222422Y-104166399D01*
X99222420Y-104166400D01*
X99028926Y-104301886D01*
X99028920Y-104301891D01*
X98861891Y-104468920D01*
X98861886Y-104468926D01*
X98726400Y-104662420D01*
X98726399Y-104662422D01*
X98626570Y-104876507D01*
X98626567Y-104876513D01*
X98569364Y-105089999D01*
X98569364Y-105090000D01*
X99466988Y-105090000D01*
X99434075Y-105147007D01*
X99400000Y-105274174D01*
X99400000Y-105405826D01*
X99434075Y-105532993D01*
X99466988Y-105590000D01*
X98569364Y-105590000D01*
X98626567Y-105803486D01*
X98626570Y-105803492D01*
X98726399Y-106017578D01*
X98861894Y-106211082D01*
X99028917Y-106378105D01*
X99214595Y-106508119D01*
X99258219Y-106562696D01*
X99265412Y-106632195D01*
X99233890Y-106694549D01*
X99214595Y-106711269D01*
X99028594Y-106841508D01*
X98861505Y-107008597D01*
X98725965Y-107202169D01*
X98725964Y-107202171D01*
X98626098Y-107416335D01*
X98626094Y-107416344D01*
X98564938Y-107644586D01*
X98564936Y-107644596D01*
X98544341Y-107879999D01*
X98544341Y-107880000D01*
X98564936Y-108115403D01*
X98564938Y-108115413D01*
X98626094Y-108343655D01*
X98626096Y-108343659D01*
X98626097Y-108343663D01*
X98693636Y-108488500D01*
X98725965Y-108557830D01*
X98725967Y-108557834D01*
X98834281Y-108712521D01*
X98861501Y-108751396D01*
X98861506Y-108751402D01*
X99028597Y-108918493D01*
X99028603Y-108918498D01*
X99214158Y-109048425D01*
X99257783Y-109103002D01*
X99264977Y-109172500D01*
X99233454Y-109234855D01*
X99214158Y-109251575D01*
X99028597Y-109381505D01*
X98861505Y-109548597D01*
X98725965Y-109742169D01*
X98725964Y-109742171D01*
X98626098Y-109956335D01*
X98626094Y-109956344D01*
X98564938Y-110184586D01*
X98564936Y-110184596D01*
X98544341Y-110419999D01*
X98544341Y-110420000D01*
X98564936Y-110655403D01*
X98564938Y-110655413D01*
X98626094Y-110883655D01*
X98626096Y-110883659D01*
X98626097Y-110883663D01*
X98712330Y-111068590D01*
X98725965Y-111097830D01*
X98725967Y-111097834D01*
X98834281Y-111252521D01*
X98861501Y-111291396D01*
X98861506Y-111291402D01*
X99028597Y-111458493D01*
X99028603Y-111458498D01*
X99214594Y-111588730D01*
X99258219Y-111643307D01*
X99265413Y-111712805D01*
X99233890Y-111775160D01*
X99214595Y-111791880D01*
X99028922Y-111921890D01*
X99028920Y-111921891D01*
X98861891Y-112088920D01*
X98861886Y-112088926D01*
X98726400Y-112282420D01*
X98726399Y-112282422D01*
X98626570Y-112496507D01*
X98626567Y-112496513D01*
X98569364Y-112709999D01*
X98569364Y-112710000D01*
X99466988Y-112710000D01*
X99434075Y-112767007D01*
X99400000Y-112894174D01*
X99400000Y-113025826D01*
X99434075Y-113152993D01*
X99466988Y-113210000D01*
X98569364Y-113210000D01*
X98626567Y-113423486D01*
X98626570Y-113423492D01*
X98726399Y-113637578D01*
X98861894Y-113831082D01*
X98983946Y-113953134D01*
X99017431Y-114014457D01*
X99012447Y-114084149D01*
X98970575Y-114140082D01*
X98939598Y-114156997D01*
X98807671Y-114206202D01*
X98807664Y-114206206D01*
X98692455Y-114292452D01*
X98692452Y-114292455D01*
X98606206Y-114407664D01*
X98606202Y-114407671D01*
X98555908Y-114542517D01*
X98549501Y-114602116D01*
X98549501Y-114602123D01*
X98549500Y-114602135D01*
X98549500Y-116397870D01*
X98549501Y-116397876D01*
X98555908Y-116457483D01*
X98606202Y-116592328D01*
X98606206Y-116592335D01*
X98692452Y-116707544D01*
X98692455Y-116707547D01*
X98807664Y-116793793D01*
X98807671Y-116793797D01*
X98942517Y-116844091D01*
X98942516Y-116844091D01*
X98949444Y-116844835D01*
X99002127Y-116850500D01*
X100221915Y-116850499D01*
X100288954Y-116870184D01*
X100309596Y-116886818D01*
X101535007Y-118112230D01*
X101535014Y-118112236D01*
X101648187Y-118187855D01*
X101648190Y-118187857D01*
X101727602Y-118220750D01*
X101773943Y-118239945D01*
X101773947Y-118239945D01*
X101773948Y-118239946D01*
X101907439Y-118266500D01*
X101907442Y-118266500D01*
X119220560Y-118266500D01*
X119360031Y-118238757D01*
X119360304Y-118240129D01*
X119423099Y-118239556D01*
X119482220Y-118276791D01*
X119511824Y-118340079D01*
X119502513Y-118409326D01*
X119457243Y-118462546D01*
X119445548Y-118469332D01*
X119207884Y-118590429D01*
X119196027Y-118595708D01*
X118884758Y-118715193D01*
X118872413Y-118719204D01*
X118550357Y-118805498D01*
X118537662Y-118808196D01*
X118208358Y-118860352D01*
X118195450Y-118861709D01*
X117859244Y-118879330D01*
X117852754Y-118879500D01*
X99825246Y-118879500D01*
X99818756Y-118879330D01*
X99482549Y-118861709D01*
X99469641Y-118860352D01*
X99140337Y-118808196D01*
X99127642Y-118805498D01*
X98805586Y-118719204D01*
X98793241Y-118715193D01*
X98481972Y-118595708D01*
X98470115Y-118590429D01*
X98173029Y-118439055D01*
X98161802Y-118432573D01*
X97882171Y-118250978D01*
X97871683Y-118243359D01*
X97612558Y-118033524D01*
X97602913Y-118024839D01*
X97367160Y-117789086D01*
X97358475Y-117779441D01*
X97269648Y-117669749D01*
X97148638Y-117520313D01*
X97141023Y-117509832D01*
X96959423Y-117230191D01*
X96952947Y-117218976D01*
X96801565Y-116921873D01*
X96796296Y-116910038D01*
X96676803Y-116598749D01*
X96672798Y-116586422D01*
X96586497Y-116264342D01*
X96583806Y-116251677D01*
X96531647Y-115922358D01*
X96530290Y-115909450D01*
X96512670Y-115573243D01*
X96512500Y-115566753D01*
X96512500Y-98260000D01*
X98544341Y-98260000D01*
X98564936Y-98495403D01*
X98564938Y-98495413D01*
X98626094Y-98723655D01*
X98626096Y-98723659D01*
X98626097Y-98723663D01*
X98725965Y-98937830D01*
X98725967Y-98937834D01*
X98834281Y-99092521D01*
X98861505Y-99131401D01*
X99028599Y-99298495D01*
X99034556Y-99302666D01*
X99222165Y-99434032D01*
X99222167Y-99434033D01*
X99222170Y-99434035D01*
X99436337Y-99533903D01*
X99664592Y-99595063D01*
X99852918Y-99611539D01*
X99899999Y-99615659D01*
X99900000Y-99615659D01*
X99900001Y-99615659D01*
X99939234Y-99612226D01*
X100135408Y-99595063D01*
X100363663Y-99533903D01*
X100577830Y-99434035D01*
X100771401Y-99298495D01*
X100938495Y-99131401D01*
X101074035Y-98937830D01*
X101173903Y-98723663D01*
X101235063Y-98495408D01*
X101255659Y-98260000D01*
X101235063Y-98024592D01*
X101173903Y-97796337D01*
X101074035Y-97582171D01*
X100938495Y-97388599D01*
X100938494Y-97388597D01*
X100771402Y-97221506D01*
X100771396Y-97221501D01*
X100585842Y-97091575D01*
X100542217Y-97036998D01*
X100535023Y-96967500D01*
X100566546Y-96905145D01*
X100585842Y-96888425D01*
X100608026Y-96872891D01*
X100771401Y-96758495D01*
X100938495Y-96591401D01*
X101074035Y-96397830D01*
X101173903Y-96183663D01*
X101235063Y-95955408D01*
X101255659Y-95720000D01*
X101235063Y-95484592D01*
X101173903Y-95256337D01*
X101074035Y-95042171D01*
X100938495Y-94848599D01*
X100938494Y-94848597D01*
X100771402Y-94681506D01*
X100771396Y-94681501D01*
X100585842Y-94551575D01*
X100542217Y-94496998D01*
X100535023Y-94427500D01*
X100566546Y-94365145D01*
X100585842Y-94348425D01*
X100608026Y-94332891D01*
X100771401Y-94218495D01*
X100938495Y-94051401D01*
X101074035Y-93857830D01*
X101173903Y-93643663D01*
X101235063Y-93415408D01*
X101255659Y-93180000D01*
X101235063Y-92944592D01*
X101173903Y-92716337D01*
X101074035Y-92502171D01*
X100938495Y-92308599D01*
X100938494Y-92308597D01*
X100771402Y-92141506D01*
X100771396Y-92141501D01*
X100585842Y-92011575D01*
X100542217Y-91956998D01*
X100535023Y-91887500D01*
X100566546Y-91825145D01*
X100585842Y-91808425D01*
X100608026Y-91792891D01*
X100771401Y-91678495D01*
X100938495Y-91511401D01*
X101074035Y-91317830D01*
X101173903Y-91103663D01*
X101235063Y-90875408D01*
X101255659Y-90640000D01*
X101235063Y-90404592D01*
X101173903Y-90176337D01*
X101074035Y-89962171D01*
X100938495Y-89768599D01*
X100938494Y-89768597D01*
X100771402Y-89601506D01*
X100771396Y-89601501D01*
X100585842Y-89471575D01*
X100542217Y-89416998D01*
X100535023Y-89347500D01*
X100566546Y-89285145D01*
X100585842Y-89268425D01*
X100608026Y-89252891D01*
X100771401Y-89138495D01*
X100938495Y-88971401D01*
X101074035Y-88777830D01*
X101173903Y-88563663D01*
X101235063Y-88335408D01*
X101255659Y-88100000D01*
X101235063Y-87864592D01*
X101173903Y-87636337D01*
X101074035Y-87422171D01*
X100938495Y-87228599D01*
X100938494Y-87228597D01*
X100771402Y-87061506D01*
X100771396Y-87061501D01*
X100585842Y-86931575D01*
X100542217Y-86876998D01*
X100535023Y-86807500D01*
X100566546Y-86745145D01*
X100585842Y-86728425D01*
X100608026Y-86712891D01*
X100771401Y-86598495D01*
X100938495Y-86431401D01*
X101074035Y-86237830D01*
X101173903Y-86023663D01*
X101235063Y-85795408D01*
X101255659Y-85560000D01*
X101235063Y-85324592D01*
X101173903Y-85096337D01*
X101074035Y-84882171D01*
X100938495Y-84688599D01*
X100938494Y-84688597D01*
X100771402Y-84521506D01*
X100771396Y-84521501D01*
X100585842Y-84391575D01*
X100542217Y-84336998D01*
X100535023Y-84267500D01*
X100566546Y-84205145D01*
X100585842Y-84188425D01*
X100608026Y-84172891D01*
X100771401Y-84058495D01*
X100938495Y-83891401D01*
X101074035Y-83697830D01*
X101173903Y-83483663D01*
X101235063Y-83255408D01*
X101255659Y-83020000D01*
X101235063Y-82784592D01*
X101173903Y-82556337D01*
X101074035Y-82342171D01*
X100938495Y-82148599D01*
X100938494Y-82148597D01*
X100771402Y-81981506D01*
X100771396Y-81981501D01*
X100585842Y-81851575D01*
X100542217Y-81796998D01*
X100535023Y-81727500D01*
X100566546Y-81665145D01*
X100585842Y-81648425D01*
X100608026Y-81632891D01*
X100771401Y-81518495D01*
X100938495Y-81351401D01*
X101074035Y-81157830D01*
X101173903Y-80943663D01*
X101235063Y-80715408D01*
X101255659Y-80480000D01*
X101235063Y-80244592D01*
X101173903Y-80016337D01*
X101074035Y-79802171D01*
X100938495Y-79608599D01*
X100938494Y-79608597D01*
X100771402Y-79441506D01*
X100771396Y-79441501D01*
X100585842Y-79311575D01*
X100542217Y-79256998D01*
X100535023Y-79187500D01*
X100566546Y-79125145D01*
X100585842Y-79108425D01*
X100608026Y-79092891D01*
X100771401Y-78978495D01*
X100938495Y-78811401D01*
X101074035Y-78617830D01*
X101173903Y-78403663D01*
X101235063Y-78175408D01*
X101255659Y-77940000D01*
X101235063Y-77704592D01*
X101173903Y-77476337D01*
X101074035Y-77262171D01*
X100938495Y-77068599D01*
X100938494Y-77068597D01*
X100771402Y-76901506D01*
X100771396Y-76901501D01*
X100585842Y-76771575D01*
X100542217Y-76716998D01*
X100535023Y-76647500D01*
X100566546Y-76585145D01*
X100585842Y-76568425D01*
X100608026Y-76552891D01*
X100771401Y-76438495D01*
X100938495Y-76271401D01*
X101074035Y-76077830D01*
X101173903Y-75863663D01*
X101235063Y-75635408D01*
X101255659Y-75400000D01*
X101235063Y-75164592D01*
X101173903Y-74936337D01*
X101074035Y-74722171D01*
X100938495Y-74528599D01*
X100938494Y-74528597D01*
X100771402Y-74361506D01*
X100771396Y-74361501D01*
X100585842Y-74231575D01*
X100542217Y-74176998D01*
X100535023Y-74107500D01*
X100566546Y-74045145D01*
X100585842Y-74028425D01*
X100608026Y-74012891D01*
X100771401Y-73898495D01*
X100938495Y-73731401D01*
X101074035Y-73537830D01*
X101173903Y-73323663D01*
X101235063Y-73095408D01*
X101255659Y-72860000D01*
X101235063Y-72624592D01*
X101173903Y-72396337D01*
X101074035Y-72182171D01*
X100938495Y-71988599D01*
X100938494Y-71988597D01*
X100771402Y-71821506D01*
X100771396Y-71821501D01*
X100585842Y-71691575D01*
X100542217Y-71636998D01*
X100535023Y-71567500D01*
X100566546Y-71505145D01*
X100585842Y-71488425D01*
X100608026Y-71472891D01*
X100771401Y-71358495D01*
X100938495Y-71191401D01*
X101074035Y-70997830D01*
X101173903Y-70783663D01*
X101235063Y-70555408D01*
X101255659Y-70320000D01*
X101235063Y-70084592D01*
X101173903Y-69856337D01*
X101074035Y-69642171D01*
X100938495Y-69448599D01*
X100938494Y-69448597D01*
X100771402Y-69281506D01*
X100771396Y-69281501D01*
X100585842Y-69151575D01*
X100542217Y-69096998D01*
X100535023Y-69027500D01*
X100566546Y-68965145D01*
X100585842Y-68948425D01*
X100608026Y-68932891D01*
X100771401Y-68818495D01*
X100938495Y-68651401D01*
X101074035Y-68457830D01*
X101173903Y-68243663D01*
X101235063Y-68015408D01*
X101255659Y-67780000D01*
X101235063Y-67544592D01*
X101173903Y-67316337D01*
X101074035Y-67102171D01*
X100938495Y-66908599D01*
X100938494Y-66908597D01*
X100771402Y-66741506D01*
X100771396Y-66741501D01*
X100585842Y-66611575D01*
X100542217Y-66556998D01*
X100535023Y-66487500D01*
X100566546Y-66425145D01*
X100585842Y-66408425D01*
X100608026Y-66392891D01*
X100771401Y-66278495D01*
X100938495Y-66111401D01*
X101074035Y-65917830D01*
X101173903Y-65703663D01*
X101235063Y-65475408D01*
X101255659Y-65240000D01*
X101235063Y-65004592D01*
X101173903Y-64776337D01*
X101074035Y-64562171D01*
X100938495Y-64368599D01*
X100938494Y-64368597D01*
X100771402Y-64201506D01*
X100771396Y-64201501D01*
X100585842Y-64071575D01*
X100542217Y-64016998D01*
X100535023Y-63947500D01*
X100566546Y-63885145D01*
X100585842Y-63868425D01*
X100608026Y-63852891D01*
X100771401Y-63738495D01*
X100938495Y-63571401D01*
X101074035Y-63377830D01*
X101173903Y-63163663D01*
X101235063Y-62935408D01*
X101255659Y-62700000D01*
X101235063Y-62464592D01*
X101173903Y-62236337D01*
X101074035Y-62022171D01*
X100938495Y-61828599D01*
X100938494Y-61828597D01*
X100771402Y-61661506D01*
X100771396Y-61661501D01*
X100585842Y-61531575D01*
X100542217Y-61476998D01*
X100535023Y-61407500D01*
X100566546Y-61345145D01*
X100585842Y-61328425D01*
X100608026Y-61312891D01*
X100771401Y-61198495D01*
X100938495Y-61031401D01*
X101074035Y-60837830D01*
X101173903Y-60623663D01*
X101235063Y-60395408D01*
X101255659Y-60160000D01*
X101235063Y-59924592D01*
X101173903Y-59696337D01*
X101074035Y-59482171D01*
X100938495Y-59288599D01*
X100938494Y-59288597D01*
X100771402Y-59121506D01*
X100771396Y-59121501D01*
X100585842Y-58991575D01*
X100542217Y-58936998D01*
X100535023Y-58867500D01*
X100566546Y-58805145D01*
X100585842Y-58788425D01*
X100608026Y-58772891D01*
X100771401Y-58658495D01*
X100938495Y-58491401D01*
X101074035Y-58297830D01*
X101173903Y-58083663D01*
X101235063Y-57855408D01*
X101255659Y-57620000D01*
X101235063Y-57384592D01*
X101173903Y-57156337D01*
X101074035Y-56942171D01*
X100938495Y-56748599D01*
X100938494Y-56748597D01*
X100771402Y-56581506D01*
X100771396Y-56581501D01*
X100585842Y-56451575D01*
X100542217Y-56396998D01*
X100535023Y-56327500D01*
X100566546Y-56265145D01*
X100585842Y-56248425D01*
X100608026Y-56232891D01*
X100771401Y-56118495D01*
X100938495Y-55951401D01*
X101074035Y-55757830D01*
X101173903Y-55543663D01*
X101235063Y-55315408D01*
X101255659Y-55080000D01*
X101235063Y-54844592D01*
X101173903Y-54616337D01*
X101074035Y-54402171D01*
X100938495Y-54208599D01*
X100938494Y-54208597D01*
X100771402Y-54041506D01*
X100771396Y-54041501D01*
X100585842Y-53911575D01*
X100542217Y-53856998D01*
X100535023Y-53787500D01*
X100566546Y-53725145D01*
X100585842Y-53708425D01*
X100608026Y-53692891D01*
X100771401Y-53578495D01*
X100938495Y-53411401D01*
X101074035Y-53217830D01*
X101173903Y-53003663D01*
X101235063Y-52775408D01*
X101255659Y-52540000D01*
X101235063Y-52304592D01*
X101173903Y-52076337D01*
X101074035Y-51862171D01*
X100938495Y-51668599D01*
X100816567Y-51546671D01*
X100783084Y-51485351D01*
X100788068Y-51415659D01*
X100829939Y-51359725D01*
X100860915Y-51342810D01*
X100992331Y-51293796D01*
X101107546Y-51207546D01*
X101193796Y-51092331D01*
X101244091Y-50957483D01*
X101250500Y-50897873D01*
X101250499Y-49102128D01*
X101244091Y-49042517D01*
X101236284Y-49021586D01*
X101193797Y-48907671D01*
X101193793Y-48907664D01*
X101107547Y-48792455D01*
X101107544Y-48792452D01*
X100992335Y-48706206D01*
X100992328Y-48706202D01*
X100857482Y-48655908D01*
X100857483Y-48655908D01*
X100797883Y-48649501D01*
X100797881Y-48649500D01*
X100797873Y-48649500D01*
X100797864Y-48649500D01*
X99002129Y-48649500D01*
X99002123Y-48649501D01*
X98942516Y-48655908D01*
X98807671Y-48706202D01*
X98807664Y-48706206D01*
X98692455Y-48792452D01*
X98692452Y-48792455D01*
X98606206Y-48907664D01*
X98606202Y-48907671D01*
X98555908Y-49042517D01*
X98549501Y-49102116D01*
X98549501Y-49102123D01*
X98549500Y-49102135D01*
X98549500Y-50897870D01*
X98549501Y-50897876D01*
X98555908Y-50957483D01*
X98606202Y-51092328D01*
X98606206Y-51092335D01*
X98692452Y-51207544D01*
X98692455Y-51207547D01*
X98807664Y-51293793D01*
X98807671Y-51293797D01*
X98939081Y-51342810D01*
X98995015Y-51384681D01*
X99019432Y-51450145D01*
X99004580Y-51518418D01*
X98983430Y-51546673D01*
X98861503Y-51668600D01*
X98725965Y-51862169D01*
X98725964Y-51862171D01*
X98626098Y-52076335D01*
X98626094Y-52076344D01*
X98564938Y-52304586D01*
X98564936Y-52304596D01*
X98544341Y-52539999D01*
X98544341Y-52540000D01*
X98564936Y-52775403D01*
X98564938Y-52775413D01*
X98626094Y-53003655D01*
X98626096Y-53003659D01*
X98626097Y-53003663D01*
X98725965Y-53217830D01*
X98725967Y-53217834D01*
X98861501Y-53411395D01*
X98861506Y-53411402D01*
X99028597Y-53578493D01*
X99028603Y-53578498D01*
X99214158Y-53708425D01*
X99257783Y-53763002D01*
X99264977Y-53832500D01*
X99233454Y-53894855D01*
X99214158Y-53911575D01*
X99028597Y-54041505D01*
X98861505Y-54208597D01*
X98725965Y-54402169D01*
X98725964Y-54402171D01*
X98626098Y-54616335D01*
X98626094Y-54616344D01*
X98564938Y-54844586D01*
X98564936Y-54844596D01*
X98544341Y-55079999D01*
X98544341Y-55080000D01*
X98564936Y-55315403D01*
X98564938Y-55315413D01*
X98626094Y-55543655D01*
X98626096Y-55543659D01*
X98626097Y-55543663D01*
X98725847Y-55757578D01*
X98725965Y-55757830D01*
X98725967Y-55757834D01*
X98861501Y-55951395D01*
X98861506Y-55951402D01*
X99028597Y-56118493D01*
X99028603Y-56118498D01*
X99214158Y-56248425D01*
X99257783Y-56303002D01*
X99264977Y-56372500D01*
X99233454Y-56434855D01*
X99214158Y-56451575D01*
X99028597Y-56581505D01*
X98861505Y-56748597D01*
X98725965Y-56942169D01*
X98725964Y-56942171D01*
X98626098Y-57156335D01*
X98626094Y-57156344D01*
X98564938Y-57384586D01*
X98564936Y-57384596D01*
X98544341Y-57619999D01*
X98544341Y-57620000D01*
X98564936Y-57855403D01*
X98564938Y-57855413D01*
X98626094Y-58083655D01*
X98626096Y-58083659D01*
X98626097Y-58083663D01*
X98725965Y-58297830D01*
X98725967Y-58297834D01*
X98861501Y-58491395D01*
X98861506Y-58491402D01*
X99028597Y-58658493D01*
X99028603Y-58658498D01*
X99214158Y-58788425D01*
X99257783Y-58843002D01*
X99264977Y-58912500D01*
X99233454Y-58974855D01*
X99214158Y-58991575D01*
X99028597Y-59121505D01*
X98861505Y-59288597D01*
X98725965Y-59482169D01*
X98725964Y-59482171D01*
X98626098Y-59696335D01*
X98626094Y-59696344D01*
X98564938Y-59924586D01*
X98564936Y-59924596D01*
X98544341Y-60159999D01*
X98544341Y-60160000D01*
X98564936Y-60395403D01*
X98564938Y-60395413D01*
X98626094Y-60623655D01*
X98626096Y-60623659D01*
X98626097Y-60623663D01*
X98725965Y-60837830D01*
X98725967Y-60837834D01*
X98861501Y-61031395D01*
X98861506Y-61031402D01*
X99028597Y-61198493D01*
X99028603Y-61198498D01*
X99214158Y-61328425D01*
X99257783Y-61383002D01*
X99264977Y-61452500D01*
X99233454Y-61514855D01*
X99214158Y-61531575D01*
X99028597Y-61661505D01*
X98861505Y-61828597D01*
X98725965Y-62022169D01*
X98725964Y-62022171D01*
X98626098Y-62236335D01*
X98626094Y-62236344D01*
X98564938Y-62464586D01*
X98564936Y-62464596D01*
X98544341Y-62699999D01*
X98544341Y-62700000D01*
X98564936Y-62935403D01*
X98564938Y-62935413D01*
X98626094Y-63163655D01*
X98626096Y-63163659D01*
X98626097Y-63163663D01*
X98725965Y-63377830D01*
X98725967Y-63377834D01*
X98861501Y-63571395D01*
X98861506Y-63571402D01*
X99028597Y-63738493D01*
X99028603Y-63738498D01*
X99214158Y-63868425D01*
X99257783Y-63923002D01*
X99264977Y-63992500D01*
X99233454Y-64054855D01*
X99214158Y-64071575D01*
X99028597Y-64201505D01*
X98861505Y-64368597D01*
X98725965Y-64562169D01*
X98725964Y-64562171D01*
X98626098Y-64776335D01*
X98626094Y-64776344D01*
X98564938Y-65004586D01*
X98564936Y-65004596D01*
X98544341Y-65239999D01*
X98544341Y-65240000D01*
X98564936Y-65475403D01*
X98564938Y-65475413D01*
X98626094Y-65703655D01*
X98626096Y-65703659D01*
X98626097Y-65703663D01*
X98725965Y-65917830D01*
X98725967Y-65917834D01*
X98861501Y-66111395D01*
X98861506Y-66111402D01*
X99028597Y-66278493D01*
X99028603Y-66278498D01*
X99214158Y-66408425D01*
X99257783Y-66463002D01*
X99264977Y-66532500D01*
X99233454Y-66594855D01*
X99214158Y-66611575D01*
X99028597Y-66741505D01*
X98861505Y-66908597D01*
X98725965Y-67102169D01*
X98725964Y-67102171D01*
X98626098Y-67316335D01*
X98626094Y-67316344D01*
X98564938Y-67544586D01*
X98564936Y-67544596D01*
X98544341Y-67779999D01*
X98544341Y-67780000D01*
X98564936Y-68015403D01*
X98564938Y-68015413D01*
X98626094Y-68243655D01*
X98626096Y-68243659D01*
X98626097Y-68243663D01*
X98725965Y-68457830D01*
X98725967Y-68457834D01*
X98861501Y-68651395D01*
X98861506Y-68651402D01*
X99028597Y-68818493D01*
X99028603Y-68818498D01*
X99214158Y-68948425D01*
X99257783Y-69003002D01*
X99264977Y-69072500D01*
X99233454Y-69134855D01*
X99214158Y-69151575D01*
X99028597Y-69281505D01*
X98861505Y-69448597D01*
X98725965Y-69642169D01*
X98725964Y-69642171D01*
X98626098Y-69856335D01*
X98626094Y-69856344D01*
X98564938Y-70084586D01*
X98564936Y-70084596D01*
X98544341Y-70319999D01*
X98544341Y-70320000D01*
X98564936Y-70555403D01*
X98564938Y-70555413D01*
X98626094Y-70783655D01*
X98626096Y-70783659D01*
X98626097Y-70783663D01*
X98725965Y-70997830D01*
X98725967Y-70997834D01*
X98861501Y-71191395D01*
X98861506Y-71191402D01*
X99028597Y-71358493D01*
X99028603Y-71358498D01*
X99214158Y-71488425D01*
X99257783Y-71543002D01*
X99264977Y-71612500D01*
X99233454Y-71674855D01*
X99214158Y-71691575D01*
X99028597Y-71821505D01*
X98861505Y-71988597D01*
X98725965Y-72182169D01*
X98725964Y-72182171D01*
X98626098Y-72396335D01*
X98626094Y-72396344D01*
X98564938Y-72624586D01*
X98564936Y-72624596D01*
X98544341Y-72859999D01*
X98544341Y-72860000D01*
X98564936Y-73095403D01*
X98564938Y-73095413D01*
X98626094Y-73323655D01*
X98626096Y-73323659D01*
X98626097Y-73323663D01*
X98725965Y-73537830D01*
X98725967Y-73537834D01*
X98861501Y-73731395D01*
X98861506Y-73731402D01*
X99028597Y-73898493D01*
X99028603Y-73898498D01*
X99214158Y-74028425D01*
X99257783Y-74083002D01*
X99264977Y-74152500D01*
X99233454Y-74214855D01*
X99214158Y-74231575D01*
X99028597Y-74361505D01*
X98861505Y-74528597D01*
X98725965Y-74722169D01*
X98725964Y-74722171D01*
X98626098Y-74936335D01*
X98626094Y-74936344D01*
X98564938Y-75164586D01*
X98564936Y-75164596D01*
X98544341Y-75399999D01*
X98544341Y-75400000D01*
X98564936Y-75635403D01*
X98564938Y-75635413D01*
X98626094Y-75863655D01*
X98626096Y-75863659D01*
X98626097Y-75863663D01*
X98725965Y-76077830D01*
X98725967Y-76077834D01*
X98861501Y-76271395D01*
X98861506Y-76271402D01*
X99028597Y-76438493D01*
X99028603Y-76438498D01*
X99214158Y-76568425D01*
X99257783Y-76623002D01*
X99264977Y-76692500D01*
X99233454Y-76754855D01*
X99214158Y-76771575D01*
X99028597Y-76901505D01*
X98861505Y-77068597D01*
X98725965Y-77262169D01*
X98725964Y-77262171D01*
X98626098Y-77476335D01*
X98626094Y-77476344D01*
X98564938Y-77704586D01*
X98564936Y-77704596D01*
X98544341Y-77939999D01*
X98544341Y-77940000D01*
X98564936Y-78175403D01*
X98564938Y-78175413D01*
X98626094Y-78403655D01*
X98626096Y-78403659D01*
X98626097Y-78403663D01*
X98725965Y-78617830D01*
X98725967Y-78617834D01*
X98861501Y-78811395D01*
X98861506Y-78811402D01*
X99028597Y-78978493D01*
X99028603Y-78978498D01*
X99214158Y-79108425D01*
X99257783Y-79163002D01*
X99264977Y-79232500D01*
X99233454Y-79294855D01*
X99214158Y-79311575D01*
X99028597Y-79441505D01*
X98861505Y-79608597D01*
X98725965Y-79802169D01*
X98725964Y-79802171D01*
X98626098Y-80016335D01*
X98626094Y-80016344D01*
X98564938Y-80244586D01*
X98564936Y-80244596D01*
X98544341Y-80479999D01*
X98544341Y-80480000D01*
X98564936Y-80715403D01*
X98564938Y-80715413D01*
X98626094Y-80943655D01*
X98626096Y-80943659D01*
X98626097Y-80943663D01*
X98725965Y-81157830D01*
X98725967Y-81157834D01*
X98861501Y-81351395D01*
X98861506Y-81351402D01*
X99028597Y-81518493D01*
X99028603Y-81518498D01*
X99214158Y-81648425D01*
X99257783Y-81703002D01*
X99264977Y-81772500D01*
X99233454Y-81834855D01*
X99214158Y-81851575D01*
X99028597Y-81981505D01*
X98861505Y-82148597D01*
X98725965Y-82342169D01*
X98725964Y-82342171D01*
X98626098Y-82556335D01*
X98626094Y-82556344D01*
X98564938Y-82784586D01*
X98564936Y-82784596D01*
X98544341Y-83019999D01*
X98544341Y-83020000D01*
X98564936Y-83255403D01*
X98564938Y-83255413D01*
X98626094Y-83483655D01*
X98626096Y-83483659D01*
X98626097Y-83483663D01*
X98725965Y-83697830D01*
X98725967Y-83697834D01*
X98861501Y-83891395D01*
X98861506Y-83891402D01*
X99028597Y-84058493D01*
X99028603Y-84058498D01*
X99214158Y-84188425D01*
X99257783Y-84243002D01*
X99264977Y-84312500D01*
X99233454Y-84374855D01*
X99214158Y-84391575D01*
X99028597Y-84521505D01*
X98861505Y-84688597D01*
X98725965Y-84882169D01*
X98725964Y-84882171D01*
X98626098Y-85096335D01*
X98626094Y-85096344D01*
X98564938Y-85324586D01*
X98564936Y-85324596D01*
X98544341Y-85559999D01*
X98544341Y-85560000D01*
X98564936Y-85795403D01*
X98564938Y-85795413D01*
X98626094Y-86023655D01*
X98626096Y-86023659D01*
X98626097Y-86023663D01*
X98725965Y-86237830D01*
X98725967Y-86237834D01*
X98861501Y-86431395D01*
X98861506Y-86431402D01*
X99028597Y-86598493D01*
X99028603Y-86598498D01*
X99214158Y-86728425D01*
X99257783Y-86783002D01*
X99264977Y-86852500D01*
X99233454Y-86914855D01*
X99214158Y-86931575D01*
X99028597Y-87061505D01*
X98861505Y-87228597D01*
X98725965Y-87422169D01*
X98725964Y-87422171D01*
X98626098Y-87636335D01*
X98626094Y-87636344D01*
X98564938Y-87864586D01*
X98564936Y-87864596D01*
X98544341Y-88099999D01*
X98544341Y-88100000D01*
X98564936Y-88335403D01*
X98564938Y-88335413D01*
X98626094Y-88563655D01*
X98626096Y-88563659D01*
X98626097Y-88563663D01*
X98725965Y-88777830D01*
X98725967Y-88777834D01*
X98861501Y-88971395D01*
X98861506Y-88971402D01*
X99028597Y-89138493D01*
X99028603Y-89138498D01*
X99214158Y-89268425D01*
X99257783Y-89323002D01*
X99264977Y-89392500D01*
X99233454Y-89454855D01*
X99214158Y-89471575D01*
X99028597Y-89601505D01*
X98861505Y-89768597D01*
X98725965Y-89962169D01*
X98725964Y-89962171D01*
X98626098Y-90176335D01*
X98626094Y-90176344D01*
X98564938Y-90404586D01*
X98564936Y-90404596D01*
X98544341Y-90639999D01*
X98544341Y-90640000D01*
X98564936Y-90875403D01*
X98564938Y-90875413D01*
X98626094Y-91103655D01*
X98626096Y-91103659D01*
X98626097Y-91103663D01*
X98725965Y-91317830D01*
X98725967Y-91317834D01*
X98861501Y-91511395D01*
X98861506Y-91511402D01*
X99028597Y-91678493D01*
X99028603Y-91678498D01*
X99214158Y-91808425D01*
X99257783Y-91863002D01*
X99264977Y-91932500D01*
X99233454Y-91994855D01*
X99214158Y-92011575D01*
X99028597Y-92141505D01*
X98861505Y-92308597D01*
X98725965Y-92502169D01*
X98725964Y-92502171D01*
X98626098Y-92716335D01*
X98626094Y-92716344D01*
X98564938Y-92944586D01*
X98564936Y-92944596D01*
X98544341Y-93179999D01*
X98544341Y-93180000D01*
X98564936Y-93415403D01*
X98564938Y-93415413D01*
X98626094Y-93643655D01*
X98626096Y-93643659D01*
X98626097Y-93643663D01*
X98725965Y-93857830D01*
X98725967Y-93857834D01*
X98861501Y-94051395D01*
X98861506Y-94051402D01*
X99028597Y-94218493D01*
X99028603Y-94218498D01*
X99214158Y-94348425D01*
X99257783Y-94403002D01*
X99264977Y-94472500D01*
X99233454Y-94534855D01*
X99214158Y-94551575D01*
X99028597Y-94681505D01*
X98861505Y-94848597D01*
X98725965Y-95042169D01*
X98725964Y-95042171D01*
X98626098Y-95256335D01*
X98626094Y-95256344D01*
X98564938Y-95484586D01*
X98564936Y-95484596D01*
X98544341Y-95719999D01*
X98544341Y-95720000D01*
X98564936Y-95955403D01*
X98564938Y-95955413D01*
X98626094Y-96183655D01*
X98626096Y-96183659D01*
X98626097Y-96183663D01*
X98725965Y-96397830D01*
X98725967Y-96397834D01*
X98861501Y-96591395D01*
X98861506Y-96591402D01*
X99028597Y-96758493D01*
X99028603Y-96758498D01*
X99214158Y-96888425D01*
X99257783Y-96943002D01*
X99264977Y-97012500D01*
X99233454Y-97074855D01*
X99214158Y-97091575D01*
X99028597Y-97221505D01*
X98861505Y-97388597D01*
X98725965Y-97582169D01*
X98725964Y-97582171D01*
X98626098Y-97796335D01*
X98626094Y-97796344D01*
X98564938Y-98024586D01*
X98564936Y-98024596D01*
X98544341Y-98259999D01*
X98544341Y-98260000D01*
X96512500Y-98260000D01*
X96512500Y-50041246D01*
X96512670Y-50034756D01*
X96530290Y-49698549D01*
X96531647Y-49685641D01*
X96570261Y-49441841D01*
X96583806Y-49356318D01*
X96586496Y-49343661D01*
X96672799Y-49021571D01*
X96676801Y-49009256D01*
X96796298Y-48697954D01*
X96801561Y-48686133D01*
X96952951Y-48389014D01*
X96959417Y-48377816D01*
X97141029Y-48098158D01*
X97148631Y-48087695D01*
X97358483Y-47828548D01*
X97367150Y-47818923D01*
X97602923Y-47583150D01*
X97612548Y-47574483D01*
X97871695Y-47364631D01*
X97882158Y-47357029D01*
X98161816Y-47175417D01*
X98173014Y-47168951D01*
X98470133Y-47017561D01*
X98481954Y-47012298D01*
X98793256Y-46892801D01*
X98805571Y-46888799D01*
X99127661Y-46802496D01*
X99140318Y-46799806D01*
X99469643Y-46747646D01*
X99482547Y-46746290D01*
X99818756Y-46728669D01*
X99825246Y-46728500D01*
X99887892Y-46728500D01*
X117536108Y-46728500D01*
X117598754Y-46728500D01*
X117605243Y-46728669D01*
G37*
%TD.AperFunction*%
%TA.AperFunction,Conductor*%
G36*
X107556850Y-108717685D02*
G01*
X107577492Y-108734319D01*
X115515992Y-116672819D01*
X115549477Y-116734142D01*
X115544493Y-116803834D01*
X115502621Y-116859767D01*
X115437157Y-116884184D01*
X115428311Y-116884500D01*
X102313084Y-116884500D01*
X102246045Y-116864815D01*
X102225403Y-116848181D01*
X101286818Y-115909596D01*
X101253333Y-115848273D01*
X101250499Y-115821915D01*
X101250499Y-114602129D01*
X101250498Y-114602123D01*
X101250497Y-114602116D01*
X101244091Y-114542517D01*
X101214019Y-114461891D01*
X101193797Y-114407671D01*
X101193793Y-114407664D01*
X101107547Y-114292455D01*
X101107544Y-114292452D01*
X100992335Y-114206206D01*
X100992328Y-114206202D01*
X100860401Y-114156997D01*
X100804467Y-114115126D01*
X100780050Y-114049662D01*
X100794902Y-113981389D01*
X100816053Y-113953133D01*
X100938108Y-113831078D01*
X101073600Y-113637578D01*
X101173429Y-113423492D01*
X101173432Y-113423486D01*
X101230636Y-113210000D01*
X100333012Y-113210000D01*
X100365925Y-113152993D01*
X100400000Y-113025826D01*
X100400000Y-112894174D01*
X100365925Y-112767007D01*
X100333012Y-112710000D01*
X101230636Y-112710000D01*
X101230635Y-112709999D01*
X101173432Y-112496513D01*
X101173429Y-112496507D01*
X101073600Y-112282422D01*
X101073599Y-112282420D01*
X100938113Y-112088926D01*
X100938108Y-112088920D01*
X100771078Y-111921890D01*
X100585405Y-111791879D01*
X100541780Y-111737302D01*
X100534588Y-111667804D01*
X100566110Y-111605449D01*
X100585406Y-111588730D01*
X100585842Y-111588425D01*
X100771401Y-111458495D01*
X100938495Y-111291401D01*
X101074035Y-111097830D01*
X101173903Y-110883663D01*
X101235063Y-110655408D01*
X101255659Y-110420000D01*
X101235063Y-110184592D01*
X101173903Y-109956337D01*
X101074035Y-109742171D01*
X101074032Y-109742166D01*
X100938494Y-109548597D01*
X100771402Y-109381506D01*
X100771396Y-109381501D01*
X100585842Y-109251575D01*
X100542217Y-109196998D01*
X100535023Y-109127500D01*
X100566546Y-109065145D01*
X100585842Y-109048425D01*
X100694998Y-108971993D01*
X100771401Y-108918495D01*
X100938495Y-108751401D01*
X100938862Y-108750877D01*
X100939081Y-108750701D01*
X100941977Y-108747251D01*
X100942670Y-108747832D01*
X100993439Y-108707252D01*
X101040437Y-108698000D01*
X107489811Y-108698000D01*
X107556850Y-108717685D01*
G37*
%TD.AperFunction*%
%TA.AperFunction,Conductor*%
G36*
X116285110Y-52674230D02*
G01*
X116341043Y-52716102D01*
X116361819Y-52770463D01*
X116363998Y-52770079D01*
X116364938Y-52775413D01*
X116426094Y-53003655D01*
X116426096Y-53003659D01*
X116426097Y-53003663D01*
X116525965Y-53217830D01*
X116525967Y-53217834D01*
X116661501Y-53411395D01*
X116661506Y-53411402D01*
X116828597Y-53578493D01*
X116828603Y-53578498D01*
X117014594Y-53708730D01*
X117058219Y-53763307D01*
X117065413Y-53832805D01*
X117033890Y-53895160D01*
X117014595Y-53911880D01*
X116828922Y-54041890D01*
X116828920Y-54041891D01*
X116661891Y-54208920D01*
X116661886Y-54208926D01*
X116526400Y-54402420D01*
X116526399Y-54402422D01*
X116426570Y-54616507D01*
X116426567Y-54616513D01*
X116369364Y-54829999D01*
X116369364Y-54830000D01*
X117266988Y-54830000D01*
X117234075Y-54887007D01*
X117200000Y-55014174D01*
X117200000Y-55145826D01*
X117234075Y-55272993D01*
X117266988Y-55330000D01*
X116369364Y-55330000D01*
X116426567Y-55543486D01*
X116426570Y-55543492D01*
X116526399Y-55757578D01*
X116661894Y-55951082D01*
X116828917Y-56118105D01*
X117014595Y-56248119D01*
X117058219Y-56302696D01*
X117065412Y-56372195D01*
X117033890Y-56434549D01*
X117014595Y-56451269D01*
X116828594Y-56581508D01*
X116661505Y-56748597D01*
X116525965Y-56942169D01*
X116525964Y-56942171D01*
X116426098Y-57156335D01*
X116426094Y-57156344D01*
X116364938Y-57384586D01*
X116364936Y-57384596D01*
X116344341Y-57619999D01*
X116344341Y-57620000D01*
X116364936Y-57855403D01*
X116364938Y-57855413D01*
X116426094Y-58083655D01*
X116426096Y-58083659D01*
X116426097Y-58083663D01*
X116525965Y-58297830D01*
X116525967Y-58297834D01*
X116661501Y-58491395D01*
X116661506Y-58491402D01*
X116828597Y-58658493D01*
X116828603Y-58658498D01*
X117014158Y-58788425D01*
X117057783Y-58843002D01*
X117064977Y-58912500D01*
X117033454Y-58974855D01*
X117014158Y-58991575D01*
X116828597Y-59121505D01*
X116661505Y-59288597D01*
X116525965Y-59482169D01*
X116525964Y-59482171D01*
X116426098Y-59696335D01*
X116426094Y-59696344D01*
X116364938Y-59924586D01*
X116364936Y-59924596D01*
X116344341Y-60159999D01*
X116344341Y-60160000D01*
X116364936Y-60395403D01*
X116364938Y-60395413D01*
X116426094Y-60623655D01*
X116426096Y-60623659D01*
X116426097Y-60623663D01*
X116525965Y-60837830D01*
X116525967Y-60837834D01*
X116661501Y-61031395D01*
X116661506Y-61031402D01*
X116828597Y-61198493D01*
X116828603Y-61198498D01*
X117014158Y-61328425D01*
X117057783Y-61383002D01*
X117064977Y-61452500D01*
X117033454Y-61514855D01*
X117014158Y-61531575D01*
X116828597Y-61661505D01*
X116661505Y-61828597D01*
X116525965Y-62022169D01*
X116525964Y-62022171D01*
X116426098Y-62236335D01*
X116426094Y-62236344D01*
X116364938Y-62464586D01*
X116364936Y-62464596D01*
X116344341Y-62699999D01*
X116344341Y-62700000D01*
X116364936Y-62935403D01*
X116364938Y-62935413D01*
X116426094Y-63163655D01*
X116426096Y-63163659D01*
X116426097Y-63163663D01*
X116525965Y-63377830D01*
X116525967Y-63377834D01*
X116661501Y-63571395D01*
X116661506Y-63571402D01*
X116828597Y-63738493D01*
X116828603Y-63738498D01*
X117014158Y-63868425D01*
X117057783Y-63923002D01*
X117064977Y-63992500D01*
X117033454Y-64054855D01*
X117014158Y-64071575D01*
X116828597Y-64201505D01*
X116661505Y-64368597D01*
X116525965Y-64562169D01*
X116525964Y-64562171D01*
X116426098Y-64776335D01*
X116426094Y-64776344D01*
X116364938Y-65004586D01*
X116364936Y-65004596D01*
X116344341Y-65239999D01*
X116344341Y-65240000D01*
X116364936Y-65475403D01*
X116364938Y-65475413D01*
X116426094Y-65703655D01*
X116426096Y-65703659D01*
X116426097Y-65703663D01*
X116525965Y-65917830D01*
X116525967Y-65917834D01*
X116661501Y-66111395D01*
X116661506Y-66111402D01*
X116828597Y-66278493D01*
X116828603Y-66278498D01*
X117014158Y-66408425D01*
X117057783Y-66463002D01*
X117064977Y-66532500D01*
X117033454Y-66594855D01*
X117014158Y-66611575D01*
X116828597Y-66741505D01*
X116661505Y-66908597D01*
X116525965Y-67102169D01*
X116525964Y-67102171D01*
X116426098Y-67316335D01*
X116426094Y-67316344D01*
X116364938Y-67544586D01*
X116364936Y-67544596D01*
X116344341Y-67779999D01*
X116344341Y-67780000D01*
X116364936Y-68015403D01*
X116364938Y-68015413D01*
X116426094Y-68243655D01*
X116426096Y-68243659D01*
X116426097Y-68243663D01*
X116525965Y-68457830D01*
X116525967Y-68457834D01*
X116661501Y-68651395D01*
X116661506Y-68651402D01*
X116828597Y-68818493D01*
X116828603Y-68818498D01*
X117014158Y-68948425D01*
X117057783Y-69003002D01*
X117064977Y-69072500D01*
X117033454Y-69134855D01*
X117014158Y-69151575D01*
X116828597Y-69281505D01*
X116661505Y-69448597D01*
X116525965Y-69642169D01*
X116525964Y-69642171D01*
X116426098Y-69856335D01*
X116426094Y-69856344D01*
X116364938Y-70084586D01*
X116364936Y-70084596D01*
X116344341Y-70319999D01*
X116344341Y-70320000D01*
X116364936Y-70555403D01*
X116364938Y-70555413D01*
X116426094Y-70783655D01*
X116426096Y-70783659D01*
X116426097Y-70783663D01*
X116525965Y-70997830D01*
X116525967Y-70997834D01*
X116661501Y-71191395D01*
X116661506Y-71191402D01*
X116828597Y-71358493D01*
X116828603Y-71358498D01*
X117014158Y-71488425D01*
X117057783Y-71543002D01*
X117064977Y-71612500D01*
X117033454Y-71674855D01*
X117014158Y-71691575D01*
X116828597Y-71821505D01*
X116661505Y-71988597D01*
X116525965Y-72182169D01*
X116525964Y-72182171D01*
X116426098Y-72396335D01*
X116426094Y-72396344D01*
X116364938Y-72624586D01*
X116364936Y-72624596D01*
X116344341Y-72859999D01*
X116344341Y-72860000D01*
X116364936Y-73095403D01*
X116364938Y-73095413D01*
X116426094Y-73323655D01*
X116426096Y-73323659D01*
X116426097Y-73323663D01*
X116525965Y-73537830D01*
X116525967Y-73537834D01*
X116661501Y-73731395D01*
X116661506Y-73731402D01*
X116828597Y-73898493D01*
X116828603Y-73898498D01*
X117014158Y-74028425D01*
X117057783Y-74083002D01*
X117064977Y-74152500D01*
X117033454Y-74214855D01*
X117014158Y-74231575D01*
X116828597Y-74361505D01*
X116661505Y-74528597D01*
X116525965Y-74722169D01*
X116525964Y-74722171D01*
X116426098Y-74936335D01*
X116426094Y-74936344D01*
X116364938Y-75164586D01*
X116364936Y-75164596D01*
X116344341Y-75399999D01*
X116344341Y-75400000D01*
X116364936Y-75635403D01*
X116364938Y-75635413D01*
X116426094Y-75863655D01*
X116426096Y-75863659D01*
X116426097Y-75863663D01*
X116525965Y-76077830D01*
X116525967Y-76077834D01*
X116661501Y-76271395D01*
X116661506Y-76271402D01*
X116828597Y-76438493D01*
X116828603Y-76438498D01*
X117014158Y-76568425D01*
X117057783Y-76623002D01*
X117064977Y-76692500D01*
X117033454Y-76754855D01*
X117014158Y-76771575D01*
X116828597Y-76901505D01*
X116661505Y-77068597D01*
X116525965Y-77262169D01*
X116525964Y-77262171D01*
X116426098Y-77476335D01*
X116426094Y-77476344D01*
X116364938Y-77704586D01*
X116364936Y-77704596D01*
X116344341Y-77939999D01*
X116344341Y-77940000D01*
X116364936Y-78175403D01*
X116364938Y-78175413D01*
X116426094Y-78403655D01*
X116426096Y-78403659D01*
X116426097Y-78403663D01*
X116525965Y-78617830D01*
X116525967Y-78617834D01*
X116661501Y-78811395D01*
X116661506Y-78811402D01*
X116828597Y-78978493D01*
X116828603Y-78978498D01*
X117014158Y-79108425D01*
X117057783Y-79163002D01*
X117064977Y-79232500D01*
X117033454Y-79294855D01*
X117014158Y-79311575D01*
X116828597Y-79441505D01*
X116661505Y-79608597D01*
X116525965Y-79802169D01*
X116525964Y-79802171D01*
X116426098Y-80016335D01*
X116426094Y-80016344D01*
X116364938Y-80244586D01*
X116364936Y-80244596D01*
X116344341Y-80479999D01*
X116344341Y-80480000D01*
X116364936Y-80715403D01*
X116364938Y-80715413D01*
X116426094Y-80943655D01*
X116426096Y-80943659D01*
X116426097Y-80943663D01*
X116525965Y-81157830D01*
X116525967Y-81157834D01*
X116661501Y-81351395D01*
X116661506Y-81351402D01*
X116828597Y-81518493D01*
X116828603Y-81518498D01*
X117014158Y-81648425D01*
X117057783Y-81703002D01*
X117064977Y-81772500D01*
X117033454Y-81834855D01*
X117014158Y-81851575D01*
X116828597Y-81981505D01*
X116661505Y-82148597D01*
X116525965Y-82342169D01*
X116525964Y-82342171D01*
X116426098Y-82556335D01*
X116426094Y-82556344D01*
X116364938Y-82784586D01*
X116364936Y-82784596D01*
X116344341Y-83019999D01*
X116344341Y-83020000D01*
X116364936Y-83255403D01*
X116364938Y-83255413D01*
X116426094Y-83483655D01*
X116426096Y-83483659D01*
X116426097Y-83483663D01*
X116525965Y-83697830D01*
X116525967Y-83697834D01*
X116661501Y-83891395D01*
X116661506Y-83891402D01*
X116828597Y-84058493D01*
X116828603Y-84058498D01*
X117014158Y-84188425D01*
X117057783Y-84243002D01*
X117064977Y-84312500D01*
X117033454Y-84374855D01*
X117014158Y-84391575D01*
X116828597Y-84521505D01*
X116661505Y-84688597D01*
X116525965Y-84882169D01*
X116525964Y-84882171D01*
X116426098Y-85096335D01*
X116426094Y-85096344D01*
X116364938Y-85324586D01*
X116364936Y-85324596D01*
X116344341Y-85559999D01*
X116344341Y-85560000D01*
X116364936Y-85795403D01*
X116364938Y-85795413D01*
X116426094Y-86023655D01*
X116426096Y-86023659D01*
X116426097Y-86023663D01*
X116525965Y-86237830D01*
X116525967Y-86237834D01*
X116661501Y-86431395D01*
X116661506Y-86431402D01*
X116828597Y-86598493D01*
X116828603Y-86598498D01*
X117014158Y-86728425D01*
X117057783Y-86783002D01*
X117064977Y-86852500D01*
X117033454Y-86914855D01*
X117014158Y-86931575D01*
X116828597Y-87061505D01*
X116661505Y-87228597D01*
X116525965Y-87422169D01*
X116525964Y-87422171D01*
X116426098Y-87636335D01*
X116426094Y-87636344D01*
X116364938Y-87864586D01*
X116364936Y-87864596D01*
X116344341Y-88099999D01*
X116344341Y-88100000D01*
X116364936Y-88335403D01*
X116364938Y-88335413D01*
X116426094Y-88563655D01*
X116426096Y-88563659D01*
X116426097Y-88563663D01*
X116525965Y-88777830D01*
X116525967Y-88777834D01*
X116661501Y-88971395D01*
X116661506Y-88971402D01*
X116828597Y-89138493D01*
X116828603Y-89138498D01*
X117014158Y-89268425D01*
X117057783Y-89323002D01*
X117064977Y-89392500D01*
X117033454Y-89454855D01*
X117014158Y-89471575D01*
X116828597Y-89601505D01*
X116661505Y-89768597D01*
X116525965Y-89962169D01*
X116525964Y-89962171D01*
X116426098Y-90176335D01*
X116426094Y-90176344D01*
X116364938Y-90404586D01*
X116364936Y-90404596D01*
X116344341Y-90639999D01*
X116344341Y-90640000D01*
X116364936Y-90875403D01*
X116364938Y-90875413D01*
X116426094Y-91103655D01*
X116426096Y-91103659D01*
X116426097Y-91103663D01*
X116525965Y-91317830D01*
X116525967Y-91317834D01*
X116661501Y-91511395D01*
X116661506Y-91511402D01*
X116828597Y-91678493D01*
X116828603Y-91678498D01*
X117014158Y-91808425D01*
X117057783Y-91863002D01*
X117064977Y-91932500D01*
X117033454Y-91994855D01*
X117014158Y-92011575D01*
X116828597Y-92141505D01*
X116661505Y-92308597D01*
X116525965Y-92502169D01*
X116525964Y-92502171D01*
X116426098Y-92716335D01*
X116426094Y-92716344D01*
X116364938Y-92944586D01*
X116364936Y-92944596D01*
X116344341Y-93179999D01*
X116344341Y-93180000D01*
X116364936Y-93415403D01*
X116364938Y-93415413D01*
X116426094Y-93643655D01*
X116426096Y-93643659D01*
X116426097Y-93643663D01*
X116525965Y-93857830D01*
X116525967Y-93857834D01*
X116661501Y-94051395D01*
X116661506Y-94051402D01*
X116828597Y-94218493D01*
X116828603Y-94218498D01*
X117014158Y-94348425D01*
X117057783Y-94403002D01*
X117064977Y-94472500D01*
X117033454Y-94534855D01*
X117014158Y-94551575D01*
X116828597Y-94681505D01*
X116661505Y-94848597D01*
X116525965Y-95042169D01*
X116525964Y-95042171D01*
X116426098Y-95256335D01*
X116426094Y-95256344D01*
X116364938Y-95484586D01*
X116364936Y-95484596D01*
X116344341Y-95719999D01*
X116344341Y-95720000D01*
X116364936Y-95955403D01*
X116364938Y-95955413D01*
X116426094Y-96183655D01*
X116426096Y-96183659D01*
X116426097Y-96183663D01*
X116525965Y-96397830D01*
X116525967Y-96397834D01*
X116661501Y-96591395D01*
X116661506Y-96591402D01*
X116828597Y-96758493D01*
X116828603Y-96758498D01*
X117014158Y-96888425D01*
X117057783Y-96943002D01*
X117064977Y-97012500D01*
X117033454Y-97074855D01*
X117014158Y-97091575D01*
X116828597Y-97221505D01*
X116661505Y-97388597D01*
X116525965Y-97582169D01*
X116525964Y-97582171D01*
X116426098Y-97796335D01*
X116426094Y-97796344D01*
X116364938Y-98024586D01*
X116364936Y-98024596D01*
X116344341Y-98259999D01*
X116344341Y-98260000D01*
X116364936Y-98495403D01*
X116364938Y-98495413D01*
X116426094Y-98723655D01*
X116426096Y-98723659D01*
X116426097Y-98723663D01*
X116525965Y-98937830D01*
X116525967Y-98937834D01*
X116661501Y-99131395D01*
X116661506Y-99131402D01*
X116828595Y-99298492D01*
X116828598Y-99298494D01*
X116828599Y-99298495D01*
X116829119Y-99298859D01*
X116829297Y-99299081D01*
X116832744Y-99301974D01*
X116832162Y-99302666D01*
X116872746Y-99353434D01*
X116882000Y-99400437D01*
X116882000Y-103932385D01*
X116862315Y-103999424D01*
X116814736Y-104040651D01*
X116815449Y-104041956D01*
X116807665Y-104046205D01*
X116692455Y-104132452D01*
X116692452Y-104132455D01*
X116606206Y-104247664D01*
X116606202Y-104247671D01*
X116555908Y-104382517D01*
X116549501Y-104442116D01*
X116549501Y-104442123D01*
X116549500Y-104442135D01*
X116549500Y-105661915D01*
X116529815Y-105728954D01*
X116513181Y-105749596D01*
X116122769Y-106140007D01*
X116122764Y-106140013D01*
X116107101Y-106163455D01*
X116053488Y-106208260D01*
X115984163Y-106216966D01*
X115921136Y-106186810D01*
X115884418Y-106127367D01*
X115880000Y-106094563D01*
X115880000Y-53028188D01*
X115899685Y-52961149D01*
X115916315Y-52940511D01*
X116154095Y-52702730D01*
X116215418Y-52669246D01*
X116285110Y-52674230D01*
G37*
%TD.AperFunction*%
%TD*%
M02*
