M48
; DRILL file {KiCad 8.0.1} date 2024-05-05T17:00:47-0400
; FORMAT={-:-/ absolute / inch / decimal}
; #@! TF.CreationDate,2024-05-05T17:00:47-04:00
; #@! TF.GenerationSoftware,Kicad,Pcbnew,8.0.1
; #@! TF.FileFunction,Plated,1,2,PTH
FMAT,2
INCH
; #@! TA.AperFunction,Plated,PTH,ComponentDrill
T1C0.0394
%
G90
G05
T1
X3.9331Y-1.9685
X3.9331Y-2.0685
X3.9331Y-2.1685
X3.9331Y-2.2685
X3.9331Y-2.3685
X3.9331Y-2.4685
X3.9331Y-2.5685
X3.9331Y-2.6685
X3.9331Y-2.7685
X3.9331Y-2.8685
X3.9331Y-2.9685
X3.9331Y-3.0685
X3.9331Y-3.1685
X3.9331Y-3.2685
X3.9331Y-3.3685
X3.9331Y-3.4685
X3.9331Y-3.5685
X3.9331Y-3.6685
X3.9331Y-3.7685
X3.9331Y-3.8685
X3.9331Y-4.1472
X3.9331Y-4.2472
X3.9331Y-4.3472
X3.9331Y-4.4472
X3.9331Y-4.5472
X4.6339Y-1.9685
X4.6339Y-2.0685
X4.6339Y-2.1685
X4.6339Y-2.2685
X4.6339Y-2.3685
X4.6339Y-2.4685
X4.6339Y-2.5685
X4.6339Y-2.6685
X4.6339Y-2.7685
X4.6339Y-2.8685
X4.6339Y-2.9685
X4.6339Y-3.0685
X4.6339Y-3.1685
X4.6339Y-3.2685
X4.6339Y-3.3685
X4.6339Y-3.4685
X4.6339Y-3.5685
X4.6339Y-3.6685
X4.6339Y-3.7685
X4.6339Y-3.8685
X4.6417Y-4.1472
X4.6417Y-4.2472
X4.6417Y-4.3472
X4.6417Y-4.4472
X4.6417Y-4.5472
M30
