%TF.GenerationSoftware,KiCad,Pcbnew,8.0.1*%
%TF.CreationDate,2024-05-05T17:00:51-04:00*%
%TF.ProjectId,picoboard,7069636f-626f-4617-9264-2e6b69636164,rev?*%
%TF.SameCoordinates,Original*%
%TF.FileFunction,Soldermask,Top*%
%TF.FilePolarity,Negative*%
%FSLAX46Y46*%
G04 Gerber Fmt 4.6, Leading zero omitted, Abs format (unit mm)*
G04 Created by KiCad (PCBNEW 8.0.1) date 2024-05-05 17:00:51*
%MOMM*%
%LPD*%
G01*
G04 APERTURE LIST*
%ADD10O,1.700000X1.700000*%
%ADD11R,1.700000X1.700000*%
G04 APERTURE END LIST*
D10*
%TO.C,J4*%
X99900000Y-105340000D03*
X99900000Y-107880000D03*
X99900000Y-110420000D03*
X99900000Y-112960000D03*
D11*
X99900000Y-115500000D03*
%TD*%
%TO.C,J3*%
X117900000Y-105340000D03*
D10*
X117900000Y-107880000D03*
X117900000Y-110420000D03*
X117900000Y-112960000D03*
X117900000Y-115500000D03*
%TD*%
D11*
%TO.C,J2*%
X117700000Y-50000000D03*
D10*
X117700000Y-52540000D03*
X117700000Y-55080000D03*
X117700000Y-57620000D03*
X117700000Y-60160000D03*
X117700000Y-62700000D03*
X117700000Y-65240000D03*
X117700000Y-67780000D03*
X117700000Y-70320000D03*
X117700000Y-72860000D03*
X117700000Y-75400000D03*
X117700000Y-77940000D03*
X117700000Y-80480000D03*
X117700000Y-83020000D03*
X117700000Y-85560000D03*
X117700000Y-88100000D03*
X117700000Y-90640000D03*
X117700000Y-93180000D03*
X117700000Y-95720000D03*
X117700000Y-98260000D03*
%TD*%
D11*
%TO.C,J1*%
X99900000Y-50000000D03*
D10*
X99900000Y-52540000D03*
X99900000Y-55080000D03*
X99900000Y-57620000D03*
X99900000Y-60160000D03*
X99900000Y-62700000D03*
X99900000Y-65240000D03*
X99900000Y-67780000D03*
X99900000Y-70320000D03*
X99900000Y-72860000D03*
X99900000Y-75400000D03*
X99900000Y-77940000D03*
X99900000Y-80480000D03*
X99900000Y-83020000D03*
X99900000Y-85560000D03*
X99900000Y-88100000D03*
X99900000Y-90640000D03*
X99900000Y-93180000D03*
X99900000Y-95720000D03*
X99900000Y-98260000D03*
%TD*%
M02*
