%TF.GenerationSoftware,KiCad,Pcbnew,8.0.1*%
%TF.CreationDate,2024-05-05T17:00:51-04:00*%
%TF.ProjectId,picoboard,7069636f-626f-4617-9264-2e6b69636164,rev?*%
%TF.SameCoordinates,Original*%
%TF.FileFunction,Legend,Top*%
%TF.FilePolarity,Positive*%
%FSLAX46Y46*%
G04 Gerber Fmt 4.6, Leading zero omitted, Abs format (unit mm)*
G04 Created by KiCad (PCBNEW 8.0.1) date 2024-05-05 17:00:51*
%MOMM*%
%LPD*%
G01*
G04 APERTURE LIST*
%ADD10C,0.150000*%
%ADD11C,0.120000*%
G04 APERTURE END LIST*
D10*
X99566666Y-117724819D02*
X99566666Y-118439104D01*
X99566666Y-118439104D02*
X99519047Y-118581961D01*
X99519047Y-118581961D02*
X99423809Y-118677200D01*
X99423809Y-118677200D02*
X99280952Y-118724819D01*
X99280952Y-118724819D02*
X99185714Y-118724819D01*
X100471428Y-118058152D02*
X100471428Y-118724819D01*
X100233333Y-117677200D02*
X99995238Y-118391485D01*
X99995238Y-118391485D02*
X100614285Y-118391485D01*
X117566666Y-102024819D02*
X117566666Y-102739104D01*
X117566666Y-102739104D02*
X117519047Y-102881961D01*
X117519047Y-102881961D02*
X117423809Y-102977200D01*
X117423809Y-102977200D02*
X117280952Y-103024819D01*
X117280952Y-103024819D02*
X117185714Y-103024819D01*
X117947619Y-102024819D02*
X118566666Y-102024819D01*
X118566666Y-102024819D02*
X118233333Y-102405771D01*
X118233333Y-102405771D02*
X118376190Y-102405771D01*
X118376190Y-102405771D02*
X118471428Y-102453390D01*
X118471428Y-102453390D02*
X118519047Y-102501009D01*
X118519047Y-102501009D02*
X118566666Y-102596247D01*
X118566666Y-102596247D02*
X118566666Y-102834342D01*
X118566666Y-102834342D02*
X118519047Y-102929580D01*
X118519047Y-102929580D02*
X118471428Y-102977200D01*
X118471428Y-102977200D02*
X118376190Y-103024819D01*
X118376190Y-103024819D02*
X118090476Y-103024819D01*
X118090476Y-103024819D02*
X117995238Y-102977200D01*
X117995238Y-102977200D02*
X117947619Y-102929580D01*
X117366666Y-46684819D02*
X117366666Y-47399104D01*
X117366666Y-47399104D02*
X117319047Y-47541961D01*
X117319047Y-47541961D02*
X117223809Y-47637200D01*
X117223809Y-47637200D02*
X117080952Y-47684819D01*
X117080952Y-47684819D02*
X116985714Y-47684819D01*
X117795238Y-46780057D02*
X117842857Y-46732438D01*
X117842857Y-46732438D02*
X117938095Y-46684819D01*
X117938095Y-46684819D02*
X118176190Y-46684819D01*
X118176190Y-46684819D02*
X118271428Y-46732438D01*
X118271428Y-46732438D02*
X118319047Y-46780057D01*
X118319047Y-46780057D02*
X118366666Y-46875295D01*
X118366666Y-46875295D02*
X118366666Y-46970533D01*
X118366666Y-46970533D02*
X118319047Y-47113390D01*
X118319047Y-47113390D02*
X117747619Y-47684819D01*
X117747619Y-47684819D02*
X118366666Y-47684819D01*
X99566666Y-46684819D02*
X99566666Y-47399104D01*
X99566666Y-47399104D02*
X99519047Y-47541961D01*
X99519047Y-47541961D02*
X99423809Y-47637200D01*
X99423809Y-47637200D02*
X99280952Y-47684819D01*
X99280952Y-47684819D02*
X99185714Y-47684819D01*
X100566666Y-47684819D02*
X99995238Y-47684819D01*
X100280952Y-47684819D02*
X100280952Y-46684819D01*
X100280952Y-46684819D02*
X100185714Y-46827676D01*
X100185714Y-46827676D02*
X100090476Y-46922914D01*
X100090476Y-46922914D02*
X99995238Y-46970533D01*
D11*
%TO.C,J4*%
X98570000Y-114230000D02*
X98570000Y-104010000D01*
X98570000Y-116830000D02*
X98570000Y-115500000D01*
X99900000Y-116830000D02*
X98570000Y-116830000D01*
X101230000Y-104010000D02*
X98570000Y-104010000D01*
X101230000Y-114230000D02*
X98570000Y-114230000D01*
X101230000Y-114230000D02*
X101230000Y-104010000D01*
%TO.C,J3*%
X116570000Y-106610000D02*
X116570000Y-116830000D01*
X116570000Y-106610000D02*
X119230000Y-106610000D01*
X116570000Y-116830000D02*
X119230000Y-116830000D01*
X117900000Y-104010000D02*
X119230000Y-104010000D01*
X119230000Y-104010000D02*
X119230000Y-105340000D01*
X119230000Y-106610000D02*
X119230000Y-116830000D01*
%TO.C,J2*%
X116370000Y-51270000D02*
X116370000Y-99590000D01*
X116370000Y-51270000D02*
X119030000Y-51270000D01*
X116370000Y-99590000D02*
X119030000Y-99590000D01*
X117700000Y-48670000D02*
X119030000Y-48670000D01*
X119030000Y-48670000D02*
X119030000Y-50000000D01*
X119030000Y-51270000D02*
X119030000Y-99590000D01*
%TO.C,J1*%
X98570000Y-51270000D02*
X98570000Y-99590000D01*
X98570000Y-51270000D02*
X101230000Y-51270000D01*
X98570000Y-99590000D02*
X101230000Y-99590000D01*
X99900000Y-48670000D02*
X101230000Y-48670000D01*
X101230000Y-48670000D02*
X101230000Y-50000000D01*
X101230000Y-51270000D02*
X101230000Y-99590000D01*
%TD*%
M02*
